<?xml version="1.0" encoding="UTF-8" standalone="no"?>
<svg width="20px" height="20px" viewBox="0 0 20 20" version="1.1" xmlns="http://www.w3.org/2000/svg" xmlns:xlink="http://www.w3.org/1999/xlink">
    <!-- Generator: Sketch 3.8.3 (29802) - http://www.bohemiancoding.com/sketch -->
    <title>Group 3</title>
    <desc>Created with Sketch.</desc>
    <defs></defs>
    <g id="Homepage-Tablet" stroke="none" stroke-width="1" fill="none" fill-rule="evenodd">
        <g id="Header-Tablet" transform="translate(-347.000000, -91.000000)">
            <g id="Group-7" transform="translate(345.000000, 89.000000)">
                <g id="Group-3">
                    <g id="Group-Copy-2">
                        <polygon id="Shape" points="0 0 24 0 24 24 0 24"></polygon>
                        <g id="Fill-1-+-Fill-4" transform="translate(2.000000, 2.000000)" fill="#2E3E51">
                            <path d="M12.3866667,13.6930667 C12.3933333,13.7864 12.4266667,13.8864 12.5266667,13.9864 L18.4,19.8597333 C18.4,19.8597333 18.72,20.1797333 19.0466667,19.8530667 L19.8533333,19.0464 C19.8533333,19.0464 20.18,18.7197333 19.86,18.3997333 L13.9866667,12.5264 C13.9866667,12.5264 13.8666667,12.4064 13.6933333,12.3864 C14.1,11.7397333 11.7466667,14.0997333 12.3866667,13.6930667" id="Fill-1"></path>
                            <path d="M2,7.99973333 C2,4.6864 4.68666667,1.99973333 8,1.99973333 C11.3133333,1.99973333 14,4.6864 14,7.99973333 C14,11.3130667 11.3133333,13.9997333 8,13.9997333 C4.68666667,13.9997333 2,11.3130667 2,7.99973333 M0,7.99973333 C0,12.4197333 3.58,15.9997333 8,15.9997333 C12.42,15.9997333 16,12.4197333 16,7.99973333 C16,3.57973333 12.42,-0.000266666667 8,-0.000266666667 C3.58,-0.000266666667 0,3.57973333 0,7.99973333" id="Fill-4"></path>
                        </g>
                    </g>
                </g>
            </g>
        </g>
    </g>
</svg>