<?xml version="1.0" encoding="UTF-8" standalone="no"?>
<svg width="218px" height="20px" viewBox="0 0 218 20" version="1.1" xmlns="http://www.w3.org/2000/svg" xmlns:xlink="http://www.w3.org/1999/xlink">
    <!-- Generator: Sketch 3.8.3 (29802) - http://www.bohemiancoding.com/sketch -->
    <title>Group 15</title>
    <desc>Created with Sketch.</desc>
    <defs>
        <polyline id="path-1" points="0 0.145227273 217.248968 0.145227273 217.248968 20 0 20"></polyline>
        <polygon id="path-3" points="0 0.145227273 217.248968 0.145227273 217.248968 20 0 20"></polygon>
    </defs>
    <g id="Symbols" stroke="none" stroke-width="1" fill="none" fill-rule="evenodd">
        <g id="Header-Desktop" transform="translate(-731.000000, -68.000000)">
            <g id="Group-15" transform="translate(731.000000, 68.000000)">
                <g id="Group-4">
                    <mask id="mask-2" fill="white">
                        <use xlink:href="#path-1"></use>
                    </mask>
                    <g id="Clip-3"></g>
                    <path d="M60.7268077,14.7708636 L60.7268077,17.7201818 C58.7432972,18.7926818 56.4537318,19.3288182 53.8571945,19.3288182 C51.7478232,19.3288182 49.9580328,18.9088182 48.4887402,18.0685909 C47.0192184,17.2285909 45.85621,16.0713182 44.9999442,14.5965455 C44.1434491,13.122 43.7152015,11.5267727 43.7152015,9.81063636 C43.7152015,7.08495455 44.6957233,4.79245455 46.6565377,2.93359091 C48.617352,1.07472727 51.0355293,0.145181818 53.9112986,0.145181818 C55.8945799,0.145181818 58.0988626,0.659045455 60.5239174,1.68677273 L60.5239174,4.56904545 C58.3150496,3.31790909 56.1561594,2.69222727 54.0465588,2.69222727 C51.8830834,2.69222727 50.0866446,3.36927273 48.6577008,4.72313636 C47.2287571,6.07722727 46.5143999,7.77313636 46.5143999,9.81063636 C46.5143999,11.8663182 47.2177529,13.5554091 48.6240004,14.8781364 C50.0304772,16.2008636 51.8289793,16.8622273 54.0195068,16.8622273 C56.3093014,16.8622273 58.544992,16.1649545 60.7268077,14.7708636" id="Fill-2" fill="#2E3E51" mask="url(#mask-2)"></path>
                </g>
                <polygon id="Fill-5" fill="#2E3E51" points="83.045428 0.386454545 86.4253281 0.386454545 78.231082 9.27440909 88.4400173 19.1144091 84.7485602 19.1144091 75.0932747 9.86440909 75.0932747 19.1144091 72.3887585 19.1144091 72.3887585 0.386454545 75.0932747 0.386454545 75.0932747 8.95281818"></polygon>
                <polygon id="Fill-7" fill="#2E3E51" points="135.43615 0.386454545 138.13333 0.386454545 130.495714 19.1948636 129.901486 19.1948636 123.724909 3.96577273 117.484141 19.1948636 116.90344 19.1948636 109.289437 0.386454545 112.014357 0.386454545 117.220499 13.2962273 122.461258 0.386454545 125.017905 0.386454545 130.283424 13.2962273"></polygon>
                <mask id="mask-4" fill="white">
                    <use xlink:href="#path-3"></use>
                </mask>
                <g id="Clip-10"></g>
                <polygon id="Fill-9" fill="#2E3E51" mask="url(#mask-4)" points="148.564757 0.386363636 151.269273 0.386363636 151.269273 19.1143182 148.564757 19.1143182"></polygon>
                <polygon id="Fill-11" fill="#2E3E51" mask="url(#mask-4)" points="163.769631 0.386454545 166.474147 0.386454545 166.474147 16.6744091 174.97995 16.6744091 174.97995 19.1144091 163.769631 19.1144091"></polygon>
                <polygon id="Fill-12" fill="#2E3E51" mask="url(#mask-4)" points="185.654662 0.386454545 188.359178 0.386454545 188.359178 16.6744091 196.864981 16.6744091 196.864981 19.1144091 185.654662 19.1144091"></polygon>
                <path d="M212.218641,11.2674773 L210.163144,10.02975 C208.873817,9.24906818 207.956569,8.48134091 207.411402,7.72611364 C206.865776,6.97088636 206.593192,6.10179545 206.593192,5.11861364 C206.593192,3.64406818 207.109244,2.44656818 208.141578,1.52588636 C209.173682,0.605431818 210.514821,0.145204545 212.164537,0.145204545 C213.742038,0.145204545 215.188863,0.584295455 216.505243,1.46225 L216.505243,4.50543182 C215.143929,3.20725 213.678993,2.55815909 212.110433,2.55815909 C211.226886,2.55815909 210.501295,2.76065909 209.933202,3.16588636 C209.365339,3.57088636 209.081292,4.08929545 209.081292,4.72134091 C209.081292,5.28225 209.290602,5.80770455 209.708991,6.29725 C210.127381,6.78679545 210.800014,7.30111364 211.727119,7.83952273 L213.792703,9.05111364 C216.096941,10.4156591 217.249174,12.15225 217.249174,14.2613409 C217.249174,15.7629318 216.742063,16.9827045 215.727841,17.9211136 C214.713618,18.8595227 213.395175,19.3288409 211.772282,19.3288409 C209.90615,19.3288409 208.206915,18.7602045 206.674348,17.6229318 L206.674348,14.2179318 C208.1347,16.05225 209.825223,16.9692955 211.74523,16.9692955 C212.592555,16.9692955 213.298201,16.7356591 213.861708,16.2681591 C214.424987,15.8006591 214.706741,15.2152045 214.706741,14.5115682 C214.706741,13.3715682 213.877298,12.2902045 212.218641,11.2674773" id="Fill-13" fill="#2E3E51" mask="url(#mask-4)"></path>
                <path d="M3.62905401,0.453863636 L6.21206526,0.453863636 L6.21206526,13.7393182 C6.21206526,15.3865909 6.04195837,16.605 5.70197384,17.3945455 C5.36176006,18.1838636 4.81269536,18.8156818 4.05523826,19.2893182 C3.2975519,19.7631818 2.38488945,20 1.31725091,20 C1.15379241,20 0.874101828,19.9743182 0.47794993,19.9231818 L-4.58509144e-05,17.5418182 L0.658602532,17.5418182 C1.3990948,17.5418182 1.96512433,17.4522727 2.35692039,17.2729545 C2.7484872,17.0936364 3.05843938,16.7777273 3.28677693,16.3254545 C3.51488523,15.8729545 3.62905401,14.9127273 3.62905401,13.4447727 L3.62905401,0.453863636 Z" id="Fill-14" fill="#2E3E51" mask="url(#mask-4)"></path>
                <path d="M28.7793121,11.1781136 L25.7313726,4.39470455 L22.904893,11.1781136 L28.7793121,11.1781136 Z M24.8058719,0.27925 L26.7066215,0.27925 L35.1771194,19.11425 L32.4088705,19.11425 L29.8911968,13.56425 L21.8312938,13.56425 L19.4708887,19.11425 L16.6914063,19.11425 L24.8058719,0.27925 Z" id="Fill-1" fill="#2E3E51" mask="url(#mask-4)"></path>
            </g>
        </g>
    </g>
</svg>